<svg width="170" height="57" viewBox="0 0 170 57" fill="none" xmlns="http://www.w3.org/2000/svg">
<path d="M37.235 19.6237C37.235 13.9128 32.6213 9.2897 26.9221 9.2897C21.2229 9.2897 21.212 10.5733 19.334 12.6292L19.3014 3.53531C19.3014 2.50191 18.4004 1.70783 17.3691 1.8166C8.46743 2.81737 1.46552 10.4645 1.46552 19.6237C1.46552 28.7828 9.54214 37.5395 19.3448 37.5395C29.1475 37.5395 36.1494 30.4907 37.1264 21.549C37.1373 21.4076 37.1373 21.2662 37.1264 21.1357C37.2024 20.6462 37.235 20.1349 37.235 19.6237Z" fill="white"/>
<path d="M56.7752 21.3532L56.7318 35.7229C56.7318 36.7563 55.8308 37.5504 54.7995 37.4416C45.8979 36.4408 38.8959 28.7937 38.8959 19.6345C38.8959 9.80096 46.9726 1.7187 56.7752 1.7187C66.5779 1.7187 74.6546 9.81183 74.6546 19.6345H58.5013C57.546 19.6345 56.7752 20.4069 56.7752 21.3532Z" fill="white"/>
<path d="M168.448 19.6237C168.448 9.72481 160.436 1.70782 150.568 1.70782C140.701 1.70782 132.689 9.73569 132.689 19.6237C132.689 29.5116 140.701 37.5395 150.568 37.5395C160.436 37.5395 155.301 37.05 157.407 36.1798C158.558 37.0391 159.98 37.5395 161.522 37.5395C165.343 37.5395 168.437 34.4393 168.437 30.6103V21.3532C168.437 21.2118 168.415 21.0813 168.383 20.9508C168.415 20.5157 168.437 20.0697 168.437 19.6237H168.448Z" fill="white"/>
<path d="M113.225 1.70783C113.127 1.70783 113.019 1.70783 112.921 1.70783V1.67519H103.172C102.217 1.67519 101.446 2.44752 101.446 3.40477V35.8099C101.446 36.7672 102.217 37.5395 103.172 37.5395H113.637C123.288 37.3002 131.093 29.2941 131.093 19.6237C131.093 9.95325 123.038 1.70783 113.225 1.70783Z" fill="white"/>
<path d="M94.4987 15.0767V3.4918C94.4987 2.4584 93.5977 1.65344 92.5773 1.77309C83.6431 2.7521 76.5977 10.421 76.5977 19.6019C76.5977 28.7828 83.6431 36.4626 92.5773 37.4307C93.5977 37.5395 94.4987 36.7454 94.4987 35.712V24.138C96.9955 24.138 99.0256 22.1038 99.0256 19.6019C99.0256 17.1 96.9955 15.0658 94.4987 15.0658V15.0767Z" fill="white"/>
<path d="M54.7452 49.2876C54.4413 48.7872 54.0396 48.3956 53.5294 48.1019C53.0192 47.8082 52.4547 47.6668 51.8576 47.6668H49.4042C49.3174 47.6668 49.2414 47.6994 49.1763 47.7647C49.1111 47.83 49.0786 47.9061 49.0786 47.9931V54.8571C49.0786 54.955 49.1111 55.0311 49.1763 55.0964C49.2414 55.1616 49.3174 55.1943 49.4042 55.1943H51.8576C52.4547 55.1943 53.0192 55.0529 53.5294 54.7592C54.0396 54.4655 54.4521 54.0739 54.7452 53.5735C55.0492 53.0731 55.1903 52.5183 55.1903 51.9092V50.9737C55.1903 50.3536 55.0383 49.7989 54.7452 49.2985V49.2876ZM54.3436 51.9527C54.3436 52.4095 54.2241 52.8229 53.9962 53.1927C53.7682 53.5626 53.4642 53.8563 53.0843 54.063C52.7043 54.2697 52.2918 54.3784 51.8576 54.3784H49.9362V48.4282H51.8576C52.3027 48.4282 52.7152 48.537 53.0843 48.7437C53.4642 48.9504 53.7682 49.2441 53.9962 49.6248C54.2241 50.0055 54.3436 50.4189 54.3436 50.8649V51.9418V51.9527Z" fill="white"/>
<path d="M65.6986 48.45V47.6668H63.5275H62.6699H60.4987V48.45H62.6699V54.3893H60.5313V55.1725H62.6699H63.5275H65.6552V54.3893H63.5275V48.45H65.6986Z" fill="white"/>
<path d="M77.6399 51.4523C77.553 51.3653 77.4553 51.3218 77.325 51.3218H74.7522V52.0615H76.8908V52.4639C76.8908 52.8773 76.7823 53.2363 76.5651 53.5517C76.348 53.8672 76.0658 54.1065 75.7184 54.2805C75.371 54.4546 74.9911 54.5416 74.5894 54.5416C74.1877 54.5416 73.7644 54.4437 73.3953 54.237C73.0262 54.0303 72.7331 53.7584 72.516 53.4103C72.2989 53.0622 72.1903 52.6706 72.1903 52.2464V50.6038C72.1903 50.1905 72.2989 49.7989 72.5268 49.4508C72.7548 49.0918 73.0479 48.8199 73.417 48.6132C73.7861 48.4065 74.1769 48.2977 74.6003 48.2977C75.0236 48.2977 75.4253 48.4065 75.8161 48.6241C76.2069 48.8416 76.4892 49.1136 76.6628 49.4616L77.4119 49.0918C77.1513 48.6132 76.7605 48.2324 76.2395 47.9387C75.7184 47.645 75.1648 47.5036 74.5894 47.5036C74.0141 47.5036 73.4821 47.645 72.9828 47.9279C72.4834 48.2107 72.0817 48.6023 71.7778 49.0918C71.4738 49.5813 71.3327 50.1034 71.3327 50.6691V52.1811C71.3327 52.7576 71.4738 53.2798 71.7669 53.7584C72.06 54.237 72.4508 54.6178 72.9502 54.9115C73.4496 55.1943 74.0032 55.3357 74.6003 55.3357C75.1973 55.3357 75.675 55.2052 76.1635 54.955C76.652 54.7048 77.0319 54.3567 77.325 53.9107C77.6181 53.4647 77.7593 52.9643 77.7593 52.3987V51.7569C77.7593 51.6372 77.7158 51.5284 77.629 51.4414L77.6399 51.4523Z" fill="white"/>
<path d="M88.6041 48.45V47.6668H86.4438H85.5862H83.4151V48.45H85.5862V54.3893H83.4477V55.1725H85.5862H86.4438H88.5607V54.3893H86.4438V48.45H88.6041Z" fill="white"/>
<path d="M100.459 47.6668H94.0754V48.45H96.8219V55.1725H97.6903V48.45H100.459V47.6668Z" fill="white"/>
<path d="M110.12 55.1725H111.065L107.938 47.7973C107.906 47.7103 107.862 47.645 107.786 47.6015C107.71 47.558 107.634 47.5363 107.558 47.5363C107.482 47.5363 107.395 47.558 107.319 47.6015C107.243 47.645 107.189 47.7103 107.156 47.7973L104.03 55.1725H104.974L105.821 53.1492H109.273L110.12 55.1725ZM106.136 52.3878L107.547 49.0157L108.959 52.3878H106.136Z" fill="white"/>
<path d="M117.263 54.3893V47.6559H116.406V54.8353C116.406 54.9332 116.438 55.0093 116.503 55.0746C116.568 55.1399 116.644 55.1725 116.731 55.1725H121.888V54.3893H117.274H117.263Z" fill="white"/>
</svg>
